<?xml version="1.0" encoding="UTF-8" standalone="no"?>
<svg
   width="1000"
   height="1000"
   viewBox="0 0 1000 1000"
   fill="none"
   version="1.1"
   id="svg2575"
   sodipodi:docname="metaworld-1000x1000.svg"
   inkscape:export-filename="..\OneDrive - University of Maryland\Desktop\logos\metaworld\metaworld-1000x1000.svg"
   inkscape:export-xdpi="9.6000004"
   inkscape:export-ydpi="9.6000004"
   inkscape:version="1.2.2 (732a01da63, 2022-12-09)"
   xmlns:inkscape="http://www.inkscape.org/namespaces/inkscape"
   xmlns:sodipodi="http://sodipodi.sourceforge.net/DTD/sodipodi-0.dtd"
   xmlns="http://www.w3.org/2000/svg"
   xmlns:svg="http://www.w3.org/2000/svg">
  <defs
     id="defs2579" />
  <sodipodi:namedview
     id="namedview2577"
     pagecolor="#ffffff"
     bordercolor="#000000"
     borderopacity="0.25"
     inkscape:showpageshadow="2"
     inkscape:pageopacity="0.0"
     inkscape:pagecheckerboard="0"
     inkscape:deskcolor="#d1d1d1"
     showgrid="false"
     inkscape:zoom="0.1827871"
     inkscape:cx="-590.85131"
     inkscape:cy="659.23688"
     inkscape:window-width="1280"
     inkscape:window-height="698"
     inkscape:window-x="-6"
     inkscape:window-y="-6"
     inkscape:window-maximized="1"
     inkscape:current-layer="svg2575" />
  <path
     d="m 339.62032,943.46511 h 431.0634"
     stroke="#000000"
     stroke-width="24.025"
     stroke-linecap="round"
     id="path3652-2"
     style="clip-rule:evenodd;fill:none;fill-rule:evenodd;image-rendering:optimizeQuality;shape-rendering:geometricPrecision;text-rendering:geometricPrecision;stroke-width:20;stroke-dasharray:none" />
  <path
     d="M 164.73194,636.49612 381.49513,757.17466"
     stroke="#000000"
     stroke-width="24.025"
     stroke-linecap="round"
     id="path3654-9"
     style="clip-rule:evenodd;fill:none;fill-rule:evenodd;image-rendering:optimizeQuality;shape-rendering:geometricPrecision;text-rendering:geometricPrecision;stroke-width:20;stroke-dasharray:none" />
  <path
     d="m 303.90383,538.07823 205.6787,50.38052"
     stroke="#000000"
     stroke-width="24.025"
     stroke-linecap="round"
     id="path3656-3"
     style="clip-rule:evenodd;fill:none;fill-rule:evenodd;image-rendering:optimizeQuality;shape-rendering:geometricPrecision;text-rendering:geometricPrecision;stroke-width:20;stroke-dasharray:none" />
  <path
     d="m 414.08353,794.66711 c 0,0 -109.93711,193.3204 -102.3602,193.3204 7.5756,0 481.12934,0 489.13464,0 8.0055,0 -116.91415,-193.3204 -116.91415,-193.3204"
     stroke="#000000"
     stroke-width="24.025"
     stroke-linecap="round"
     id="path3658-7"
     style="clip-rule:evenodd;fill:none;fill-rule:evenodd;image-rendering:optimizeQuality;shape-rendering:geometricPrecision;text-rendering:geometricPrecision;stroke-width:20;stroke-dasharray:none" />
  <path
     d="m 439.99652,240.48242 c 0,0 27.7951,-96.46358 39.7909,-104.21392 11.9961,-7.75045 176.6412,-59.815566 189.9697,-59.815566 13.32839,0 45.3158,53.119796 39.98409,64.501986 -5.33179,11.38239 -113.28979,54.38414 -121.28659,61.97278 -7.9968,7.58855 -18.1537,55.12903 -18.1537,55.12903"
     stroke="#000000"
     stroke-width="24.025"
     stroke-linecap="round"
     id="path3660-7"
     style="clip-rule:evenodd;fill:none;fill-rule:evenodd;image-rendering:optimizeQuality;shape-rendering:geometricPrecision;text-rendering:geometricPrecision;stroke-width:20;stroke-dasharray:none" />
  <path
     d="m 573.99212,341.82774 c 0,45.8111 -37.146,82.82266 -82.8126,82.82266 -45.66629,0 -82.81229,-37.01156 -82.81229,-82.82266 0,-45.8111 37.146,-82.82278 82.81229,-82.82278 45.6666,0 82.8126,37.01168 82.8126,82.82278 z"
     stroke="#000000"
     stroke-width="23.5781"
     id="path3662-9"
     style="clip-rule:evenodd;fill:none;fill-rule:evenodd;image-rendering:optimizeQuality;shape-rendering:geometricPrecision;text-rendering:geometricPrecision;stroke-width:20;stroke-dasharray:none" />
  <path
     d="m 271.15893,478.90974 c 0,71.68493 -58.1137,129.71302 -129.69749,129.71302 -71.58329,0 -129.69679,-58.02809 -129.69679,-129.71302 0,-71.68491 58.1135,-129.71302 129.69679,-129.71302 71.58379,0 129.69749,58.02811 129.69749,129.71302 z"
     stroke="#000000"
     stroke-width="23.5293"
     id="path3664-0"
     style="clip-rule:evenodd;fill:none;fill-rule:evenodd;image-rendering:optimizeQuality;shape-rendering:geometricPrecision;text-rendering:geometricPrecision;stroke-width:20;stroke-dasharray:none" />
  <path
     d="m 611.56562,350.05841 c 0,0 49.32881,28.85605 66.6596,26.32664 17.3316,-2.52962 123.98765,-45.42427 131.98685,-39.21464 7.9996,6.20964 29.3309,32.89034 30.6647,50.59956 1.3333,17.71039 -145.31995,98.29585 -162.65155,102.09191 -17.33079,3.79501 -126.7681,-46.71444 -126.7681,-46.71444"
     stroke="#000000"
     stroke-width="24.025"
     stroke-linecap="round"
     id="path3666-9"
     style="clip-rule:evenodd;fill:none;fill-rule:evenodd;image-rendering:optimizeQuality;shape-rendering:geometricPrecision;text-rendering:geometricPrecision;stroke-width:20;stroke-dasharray:none" />
  <path
     d="M 312.52523,481.83959 424.60143,429.1159"
     stroke="#000000"
     stroke-width="24.025"
     stroke-linecap="round"
     id="path3668-5"
     style="clip-rule:evenodd;fill:none;fill-rule:evenodd;image-rendering:optimizeQuality;shape-rendering:geometricPrecision;text-rendering:geometricPrecision;stroke-width:20;stroke-dasharray:none" />
  <path
     d="m 188.22844,477.73764 c 0,26.49423 -21.5207,47.56948 -47.564,47.56948 -26.04341,0 -47.56399,-21.07525 -47.56399,-47.56948 0,-26.49498 21.52058,-47.56979 47.56399,-47.56979 26.0433,0 47.564,21.07481 47.564,47.56979 z"
     stroke="#000000"
     stroke-width="23.7852"
     id="path3670-6"
     style="clip-rule:evenodd;fill:none;fill-rule:evenodd;image-rendering:optimizeQuality;shape-rendering:geometricPrecision;text-rendering:geometricPrecision;stroke-width:20;stroke-dasharray:none" />
  <path
     d="m 594.79773,745.45781 c 0,26.17317 -21.26001,46.983 -46.97721,46.983 -25.7169,0 -46.9769,-20.80983 -46.9769,-46.983 0,-26.17317 21.26,-46.98279 46.9769,-46.98279 25.7172,0 46.97721,20.80962 46.97721,46.98279 z"
     stroke="#000000"
     stroke-width="23.7894"
     id="path3672-3"
     style="clip-rule:evenodd;fill:none;fill-rule:evenodd;image-rendering:optimizeQuality;shape-rendering:geometricPrecision;text-rendering:geometricPrecision;stroke-width:20;stroke-dasharray:none" />
  <ellipse
     cx="490.17383"
     cy="341.82935"
     stroke="#000000"
     stroke-width="23.6036"
     id="circle3674-4"
     style="clip-rule:evenodd;fill:none;fill-rule:evenodd;image-rendering:optimizeQuality;shape-rendering:geometricPrecision;text-rendering:geometricPrecision;stroke-width:20;stroke-dasharray:none"
     rx="28.912741"
     ry="28.916285" />
  <path
     d="m 680.84021,748.64727 c 0,74.33654 -60.28169,134.35544 -134.33908,134.35544 -74.0576,0 -134.33891,-60.0189 -134.33891,-134.35544 0,-74.33681 60.28131,-134.35517 134.33891,-134.35517 74.05739,0 134.33908,60.01836 134.33908,134.35517 z"
     stroke="#000000"
     stroke-width="23.622"
     id="path3676-9"
     style="clip-rule:evenodd;fill:none;fill-rule:evenodd;image-rendering:optimizeQuality;shape-rendering:geometricPrecision;text-rendering:geometricPrecision;stroke-width:20;stroke-dasharray:none" />
  <path
     d="M 242.32314,344.75801 380.26372,314.29537"
     stroke="#000000"
     stroke-width="24.025"
     stroke-linecap="round"
     id="path3678-6"
     style="clip-rule:evenodd;fill:none;fill-rule:evenodd;image-rendering:optimizeQuality;shape-rendering:geometricPrecision;text-rendering:geometricPrecision;stroke-width:20;stroke-dasharray:none" />
  <ellipse
     cx="824.61536"
     cy="77.037048"
     stroke="#000000"
     stroke-width="23.5215"
     id="circle3680-7"
     style="clip-rule:evenodd;fill:none;fill-rule:evenodd;image-rendering:optimizeQuality;shape-rendering:geometricPrecision;text-rendering:geometricPrecision;stroke-width:20;stroke-dasharray:none"
     rx="65.268295"
     ry="65.276299" />
  <path
     d="m 906.70637,327.85839 -57.1476,-122.02414 c -0.9561,-2.04276 0.288,-4.40899 2.5675,-4.88595 l 131.4779,-27.48599 c 2.9915,-0.62611 5.4313,2.32123 4.1146,4.96901 l -74.3298,149.50918 c -1.3499,2.71218 -5.3981,2.66317 -6.6826,-0.0843 z"
     stroke="#000000"
     stroke-width="24.0255"
     stroke-linecap="round"
     id="path3682-7"
     style="clip-rule:evenodd;fill:none;fill-rule:evenodd;image-rendering:optimizeQuality;shape-rendering:geometricPrecision;text-rendering:geometricPrecision;stroke-width:20;stroke-dasharray:none" />
  <rect
     x="457.94397"
     y="466.5065"
     width="140.24297"
     height="125.68441"
     rx="12.206287"
     transform="matrix(0.90987381,-0.41488511,0.45437387,0.89081108,0,0)"
     stroke="#000000"
     stroke-width="24.0362"
     id="rect3684-6"
     style="clip-rule:evenodd;fill:none;fill-rule:evenodd;image-rendering:optimizeQuality;shape-rendering:geometricPrecision;text-rendering:geometricPrecision;stroke-width:20.00962069;stroke-dasharray:none" />
</svg>
