<?xml version="1.0" encoding="UTF-8" standalone="no"?>
<svg
   width="16.09996"
   height="16.000015"
   viewBox="0 0 16.09996 16.000015"
   fill="none"
   version="1.1"
   id="svg2575"
   sodipodi:docname="metaworld-favicon.svg"
   inkscape:export-filename="metaworld-favicon.svg"
   inkscape:export-xdpi="96"
   inkscape:export-ydpi="96"
   inkscape:version="1.2.2 (732a01da63, 2022-12-09)"
   xmlns:inkscape="http://www.inkscape.org/namespaces/inkscape"
   xmlns:sodipodi="http://sodipodi.sourceforge.net/DTD/sodipodi-0.dtd"
   xmlns="http://www.w3.org/2000/svg"
   xmlns:svg="http://www.w3.org/2000/svg">
  <sodipodi:namedview
     id="namedview8724"
     pagecolor="#ffffff"
     bordercolor="#000000"
     borderopacity="0.25"
     inkscape:showpageshadow="2"
     inkscape:pageopacity="0.0"
     inkscape:pagecheckerboard="0"
     inkscape:deskcolor="#d1d1d1"
     showgrid="false"
     inkscape:zoom="11.424183"
     inkscape:cx="-1.0504033"
     inkscape:cy="10.110132"
     inkscape:window-width="1280"
     inkscape:window-height="698"
     inkscape:window-x="-6"
     inkscape:window-y="1074"
     inkscape:window-maximized="1"
     inkscape:current-layer="svg2575" />
  <defs
     id="defs2579" />
  <path
     d="m 5.428927,15.124303 h 6.92671"
     stroke="#000000"
     stroke-width="24.025"
     stroke-linecap="round"
     id="path3652-2"
     style="clip-rule:evenodd;fill:none;fill-rule:evenodd;stroke-width:0.321294;stroke-dasharray:none;image-rendering:optimizeQuality;shape-rendering:geometricPrecision;text-rendering:geometricPrecision;stroke:#808080;stroke-opacity:1" />
  <path
     d="m 2.618667,10.194223 3.48314,1.93816"
     stroke="#000000"
     stroke-width="24.025"
     stroke-linecap="round"
     id="path3654-9"
     style="clip-rule:evenodd;fill:none;fill-rule:evenodd;stroke-width:0.321294;stroke-dasharray:none;image-rendering:optimizeQuality;shape-rendering:geometricPrecision;text-rendering:geometricPrecision;stroke:#808080;stroke-opacity:1" />
  <path
     d="m 4.854997,8.613573 3.30503,0.80914"
     stroke="#000000"
     stroke-width="24.025"
     stroke-linecap="round"
     id="path3656-3"
     style="clip-rule:evenodd;fill:none;fill-rule:evenodd;stroke-width:0.321294;stroke-dasharray:none;image-rendering:optimizeQuality;shape-rendering:geometricPrecision;text-rendering:geometricPrecision;stroke:#808080;stroke-opacity:1" />
  <path
     d="m 6.625467,12.734523 c 0,0 -1.76656,3.10483 -1.64482,3.10483 0.12174,0 7.73123,0 7.85986,0 0.12864,0 -1.87868,-3.10483 -1.87868,-3.10483"
     stroke="#000000"
     stroke-width="24.025"
     stroke-linecap="round"
     id="path3658-7"
     style="clip-rule:evenodd;fill:none;fill-rule:evenodd;stroke-width:0.321294;stroke-dasharray:none;image-rendering:optimizeQuality;shape-rendering:geometricPrecision;text-rendering:geometricPrecision;stroke:#808080;stroke-opacity:1" />
  <path
     d="m 7.041867,3.834033 c 0,0 0.44663,-1.54925 0.63939,-1.67373 0.19277,-0.12447 2.83843,-0.96067 3.0526,-0.96067 0.21417,0 0.72818,0.85313 0.64251,1.03594 -0.0857,0.18281 -1.82045,0.87344 -1.94894,0.99531 -0.12851,0.12188 -0.29172,0.8854 -0.29172,0.8854"
     stroke="#000000"
     stroke-width="24.025"
     stroke-linecap="round"
     id="path3660-7"
     style="clip-rule:evenodd;fill:none;fill-rule:evenodd;stroke-width:0.321294;stroke-dasharray:none;image-rendering:optimizeQuality;shape-rendering:geometricPrecision;text-rendering:geometricPrecision;stroke:#808080;stroke-opacity:1" />
  <path
     d="m 9.195027,5.461693 c 0,0.73575 -0.5969,1.33017 -1.33071,1.33017 -0.73381,0 -1.33071,-0.59442 -1.33071,-1.33017 0,-0.73575 0.5969,-1.33018 1.33071,-1.33018 0.73381,0 1.33071,0.59443 1.33071,1.33018 z"
     stroke="#000000"
     stroke-width="23.5781"
     id="path3662-9"
     style="clip-rule:evenodd;fill:none;fill-rule:evenodd;stroke-width:0.321294;stroke-dasharray:none;image-rendering:optimizeQuality;shape-rendering:geometricPrecision;text-rendering:geometricPrecision;stroke:#808080;stroke-opacity:1" />
  <path
     d="m 4.328837,7.663303 c 0,1.15129 -0.93383,2.08326 -2.0841,2.08326 -1.15026,0 -2.08409,-0.93197 -2.08409,-2.08326 0,-1.1513 0.93383,-2.08326 2.08409,-2.08326 1.15027,0 2.0841,0.93196 2.0841,2.08326 z"
     stroke="#000000"
     stroke-width="23.5293"
     id="path3664-0"
     style="clip-rule:evenodd;fill:none;fill-rule:evenodd;stroke-width:0.321294;stroke-dasharray:none;image-rendering:optimizeQuality;shape-rendering:geometricPrecision;text-rendering:geometricPrecision;stroke:#808080;stroke-opacity:1" />
  <path
     d="m 9.798787,5.593883 c 0,0 0.79266,0.46344 1.07114,0.42282 0.27851,-0.0406 1.99235,-0.72954 2.12089,-0.62981 0.12854,0.0997 0.47131,0.52824 0.49275,0.81266 0.0214,0.28443 -2.33513,1.57868 -2.61364,1.63964 -0.27848,0.0609 -2.03702,-0.75025 -2.03702,-0.75025"
     stroke="#000000"
     stroke-width="24.025"
     stroke-linecap="round"
     id="path3666-9"
     style="clip-rule:evenodd;fill:none;fill-rule:evenodd;stroke-width:0.321294;stroke-dasharray:none;image-rendering:optimizeQuality;shape-rendering:geometricPrecision;text-rendering:geometricPrecision;stroke:#808080;stroke-opacity:1" />
  <path
     d="m 4.993547,7.710353 1.80093,-0.84677"
     stroke="#000000"
     stroke-width="24.025"
     stroke-linecap="round"
     id="path3668-5"
     style="clip-rule:evenodd;fill:none;fill-rule:evenodd;stroke-width:0.321294;stroke-dasharray:none;image-rendering:optimizeQuality;shape-rendering:geometricPrecision;text-rendering:geometricPrecision;stroke:#808080;stroke-opacity:1" />
  <path
     d="m 2.996237,7.644473 c 0,0.42551 -0.34582,0.76399 -0.76431,0.76399 -0.41848,0 -0.7643,-0.33848 -0.7643,-0.76399 0,-0.42552 0.34582,-0.76399 0.7643,-0.76399 0.41849,0 0.76431,0.33847 0.76431,0.76399 z"
     stroke="#000000"
     stroke-width="23.7852"
     id="path3670-6"
     style="clip-rule:evenodd;fill:none;fill-rule:evenodd;stroke-width:0.321294;stroke-dasharray:none;image-rendering:optimizeQuality;shape-rendering:geometricPrecision;text-rendering:geometricPrecision;stroke:#808080;stroke-opacity:1" />
  <path
     d="m 9.529347,11.944203 c 0,0.42035 -0.34162,0.75457 -0.75487,0.75457 -0.41324,0 -0.75487,-0.33422 -0.75487,-0.75457 0,-0.42036 0.34163,-0.75457 0.75487,-0.75457 0.41325,0 0.75487,0.33421 0.75487,0.75457 z"
     stroke="#000000"
     stroke-width="23.7894"
     id="path3672-3"
     style="clip-rule:evenodd;fill:none;fill-rule:evenodd;stroke-width:0.321294;stroke-dasharray:none;image-rendering:optimizeQuality;shape-rendering:geometricPrecision;text-rendering:geometricPrecision;stroke:#808080;stroke-opacity:1" />
  <ellipse
     cx="7.848146"
     cy="5.4617033"
     stroke="#000000"
     stroke-width="23.6036"
     id="circle3674-4"
     style="clip-rule:evenodd;fill:none;fill-rule:evenodd;stroke-width:0.321294;stroke-dasharray:none;image-rendering:optimizeQuality;shape-rendering:geometricPrecision;text-rendering:geometricPrecision;stroke:#808080;stroke-opacity:1"
     rx="0.46459559"
     ry="0.46441045" />
  <path
     d="m 10.911957,11.995423 c 0,1.19388 -0.96866,2.15782 -2.15868,2.15782 -1.19002,0 -2.15868,-0.96394 -2.15868,-2.15782 0,-1.19389 0.96866,-2.15781 2.15868,-2.15781 1.19002,0 2.15868,0.96392 2.15868,2.15781 z"
     stroke="#000000"
     stroke-width="23.622"
     id="path3676-9"
     style="clip-rule:evenodd;fill:none;fill-rule:evenodd;stroke-width:0.321294;stroke-dasharray:none;image-rendering:optimizeQuality;shape-rendering:geometricPrecision;text-rendering:geometricPrecision;stroke:#808080;stroke-opacity:1" />
  <path
     d="m 3.865467,5.508753 2.21656,-0.48924"
     stroke="#000000"
     stroke-width="24.025"
     stroke-linecap="round"
     id="path3678-6"
     style="clip-rule:evenodd;fill:none;fill-rule:evenodd;stroke-width:0.321294;stroke-dasharray:none;image-rendering:optimizeQuality;shape-rendering:geometricPrecision;text-rendering:geometricPrecision;stroke:#808080;stroke-opacity:1" />
  <ellipse
     cx="13.222261"
     cy="1.209018"
     stroke="#000000"
     stroke-width="23.5215"
     id="circle3680-7"
     style="clip-rule:evenodd;fill:none;fill-rule:evenodd;stroke-width:0.321294;stroke-dasharray:none;image-rendering:optimizeQuality;shape-rendering:geometricPrecision;text-rendering:geometricPrecision;stroke:#808080;stroke-opacity:1"
     rx="1.0487889"
     ry="1.048371" />
  <path
     d="m 14.541377,5.237333 -0.9183,-1.95977 c -0.0154,-0.0328 0.005,-0.0708 0.0412,-0.0785 l 2.1127,-0.44144 c 0.048,-0.01 0.0873,0.0373 0.0661,0.0798 l -1.19439,2.40119 c -0.0216,0.0436 -0.0867,0.0428 -0.10743,-0.001 z"
     stroke="#000000"
     stroke-width="24.0255"
     stroke-linecap="round"
     id="path3682-7"
     style="clip-rule:evenodd;fill:none;fill-rule:evenodd;stroke-width:0.321294;stroke-dasharray:none;image-rendering:optimizeQuality;shape-rendering:geometricPrecision;text-rendering:geometricPrecision;stroke:#808080;stroke-opacity:1" />
  <rect
     x="7.3455997"
     y="7.4556613"
     width="2.2533462"
     height="2.0187738"
     rx="0.19612387"
     transform="matrix(0.90995538,-0.41470617,0.45456181,0.8907152,0,0)"
     stroke="#000000"
     stroke-width="24.0362"
     id="rect3684-6"
     style="clip-rule:evenodd;fill:none;fill-rule:evenodd;stroke-width:0.321452;stroke-dasharray:none;image-rendering:optimizeQuality;shape-rendering:geometricPrecision;text-rendering:geometricPrecision;stroke:#808080;stroke-opacity:1" />
</svg>
