<?xml version="1.0" encoding="UTF-8" standalone="no"?>
<!-- Creator: CorelDRAW -->

<svg
   xml:space="preserve"
   width="3750"
   height="1000"
   version="1.1"
   style="clip-rule:evenodd;fill-rule:evenodd;image-rendering:optimizeQuality;shape-rendering:geometricPrecision;text-rendering:geometricPrecision"
   viewBox="0 0 3750 1000"
   id="svg145"
   sodipodi:docname="Banner.svg"
   inkscape:version="1.2.1 (9c6d41e410, 2022-07-14)"
   inkscape:export-filename="..\..\..\OneDrive - University of Maryland\Desktop\logos\metaworld\text\metaworld-text-banner.svg"
   inkscape:export-xdpi="96"
   inkscape:export-ydpi="96"
   xmlns:inkscape="http://www.inkscape.org/namespaces/inkscape"
   xmlns:sodipodi="http://sodipodi.sourceforge.net/DTD/sodipodi-0.dtd"
   xmlns="http://www.w3.org/2000/svg"
   xmlns:svg="http://www.w3.org/2000/svg"><sodipodi:namedview
   id="namedview147"
   pagecolor="#ffffff"
   bordercolor="#666666"
   borderopacity="1.0"
   inkscape:showpageshadow="2"
   inkscape:pageopacity="0.0"
   inkscape:pagecheckerboard="0"
   inkscape:deskcolor="#d1d1d1"
   showgrid="false"
   inkscape:zoom="0.15861561"
   inkscape:cx="1544.6147"
   inkscape:cy="498.05943"
   inkscape:window-width="1538"
   inkscape:window-height="877"
   inkscape:window-x="1974"
   inkscape:window-y="-8"
   inkscape:window-maximized="1"
   inkscape:current-layer="Layer_x0020_1"
   showguides="true"><inkscape:grid
     type="xygrid"
     id="grid2199" /><sodipodi:guide
     position="760,440"
     orientation="1,0"
     id="guide2201"
     inkscape:locked="false" /><sodipodi:guide
     position="920,460"
     orientation="1,0"
     id="guide2203"
     inkscape:locked="false" /><sodipodi:guide
     position="416.82205,235.00472"
     orientation="0,-1"
     id="guide19258"
     inkscape:locked="false" /></sodipodi:namedview>
 <defs
   id="defs139"><rect
     x="920"
     y="775.45959"
     width="0"
     height="510.66852"
     id="rect19254" /><style
     type="text/css"
     id="style137">
   <![CDATA[
    .str0 {stroke:#373435;stroke-width:2.36;stroke-miterlimit:22.9256}
    .fil0 {fill:none}
   ]]>
  </style></defs>
 <g
   id="Layer_x0020_1"
   inkscape:label="Layer 1"
   inkscape:groupmode="layer">
  <metadata
   id="CorelCorpID_0Corel-Layer" />

 <rect
   style="fill:#ffffff;stroke-width:15;stroke-linecap:round"
   id="rect572"
   width="3750"
   height="1000"
   x="0"
   y="0"
   ry="300"
   sodipodi:insensitive="true" /><g
   id="g19279"
   transform="translate(315.05366,-2.9937016)"><path
     d="M 409.78052,735.989 H 639.09191"
     stroke="#000000"
     stroke-width="24.025"
     stroke-linecap="round"
     id="path3652-2"
     style="clip-rule:evenodd;fill:none;fill-rule:evenodd;stroke-width:10.6398;stroke-dasharray:none;image-rendering:optimizeQuality;shape-rendering:geometricPrecision;text-rendering:geometricPrecision" /><path
     d="m 316.74568,572.67812 115.31086,64.20234"
     stroke="#000000"
     stroke-width="24.025"
     stroke-linecap="round"
     id="path3654-9"
     style="clip-rule:evenodd;fill:none;fill-rule:evenodd;stroke-width:10.6398;stroke-dasharray:none;image-rendering:optimizeQuality;shape-rendering:geometricPrecision;text-rendering:geometricPrecision" /><path
     d="m 390.78053,520.31873 109.41424,26.80299"
     stroke="#000000"
     stroke-width="24.025"
     stroke-linecap="round"
     id="path3656-3"
     style="clip-rule:evenodd;fill:none;fill-rule:evenodd;stroke-width:10.6398;stroke-dasharray:none;image-rendering:optimizeQuality;shape-rendering:geometricPrecision;text-rendering:geometricPrecision" /><path
     d="m 449.39248,656.82685 c 0,0 -58.48292,102.84853 -54.45224,102.84853 4.02995,0 255.94487,0 260.20337,0 4.2587,0 -62.1944,-102.84853 -62.1944,-102.84853"
     stroke="#000000"
     stroke-width="24.025"
     stroke-linecap="round"
     id="path3658-7"
     style="clip-rule:evenodd;fill:none;fill-rule:evenodd;stroke-width:10.6398;stroke-dasharray:none;image-rendering:optimizeQuality;shape-rendering:geometricPrecision;text-rendering:geometricPrecision" /><path
     d="m 463.17736,361.99449 c 0,0 14.78604,-51.31969 21.16741,-55.44295 6.38154,-4.12333 93.96724,-31.82255 101.05764,-31.82255 7.0902,0 24.1065,28.26032 21.2701,34.31578 -2.8363,6.05555 -60.26635,28.93296 -64.5204,32.97019 -4.25403,4.03719 -9.65715,29.32925 -9.65715,29.32925"
     stroke="#000000"
     stroke-width="24.025"
     stroke-linecap="round"
     id="path3660-7"
     style="clip-rule:evenodd;fill:none;fill-rule:evenodd;stroke-width:10.6398;stroke-dasharray:none;image-rendering:optimizeQuality;shape-rendering:geometricPrecision;text-rendering:geometricPrecision" /><path
     d="m 534.45853,415.91132 c 0,24.372 -19.76041,44.06255 -44.05354,44.06255 -24.29297,0 -44.05337,-19.69055 -44.05337,-44.06255 0,-24.37202 19.7604,-44.06264 44.05337,-44.06264 24.29313,0 44.05354,19.69062 44.05354,44.06264 z"
     stroke="#000000"
     stroke-width="23.5781"
     id="path3662-9"
     style="clip-rule:evenodd;fill:none;fill-rule:evenodd;stroke-width:10.6398;stroke-dasharray:none;image-rendering:optimizeQuality;shape-rendering:geometricPrecision;text-rendering:geometricPrecision" /><path
     d="m 373.36132,488.84044 c 0,38.13718 -30.91458,69.00876 -68.99476,69.00876 -38.07992,0 -68.99438,-30.87158 -68.99438,-69.00876 0,-38.13716 30.91446,-69.00875 68.99438,-69.00875 38.08018,0 68.99476,30.87159 68.99476,69.00875 z"
     stroke="#000000"
     stroke-width="23.5293"
     id="path3664-0"
     style="clip-rule:evenodd;fill:none;fill-rule:evenodd;stroke-width:10.6398;stroke-dasharray:none;image-rendering:optimizeQuality;shape-rendering:geometricPrecision;text-rendering:geometricPrecision" /><path
     d="m 554.44641,420.29011 c 0,0 26.2413,15.35174 35.4607,14.00607 9.2198,-1.34579 65.9573,-24.16621 70.2126,-20.86262 4.2555,3.3036 15.603,17.49802 16.3126,26.91952 0.7093,9.42213 -77.3054,52.29448 -86.5252,54.31403 -9.2194,2.01898 -67.43644,-24.85261 -67.43644,-24.85261"
     stroke="#000000"
     stroke-width="24.025"
     stroke-linecap="round"
     id="path3666-9"
     style="clip-rule:evenodd;fill:none;fill-rule:evenodd;stroke-width:10.6398;stroke-dasharray:none;image-rendering:optimizeQuality;shape-rendering:geometricPrecision;text-rendering:geometricPrecision" /><path
     d="m 395.36681,490.39915 59.62085,-28.04958"
     stroke="#000000"
     stroke-width="24.025"
     stroke-linecap="round"
     id="path3668-5"
     style="clip-rule:evenodd;fill:none;fill-rule:evenodd;stroke-width:10.6398;stroke-dasharray:none;image-rendering:optimizeQuality;shape-rendering:geometricPrecision;text-rendering:geometricPrecision" /><path
     d="m 329.24506,488.21687 c 0,14.09522 -11.44829,25.30749 -25.30249,25.30749 -13.8542,0 -25.30246,-11.21227 -25.30246,-25.30749 0,-14.09562 11.44826,-25.30765 25.30246,-25.30765 13.8542,0 25.30249,11.21203 25.30249,25.30765 z"
     stroke="#000000"
     stroke-width="23.7852"
     id="path3670-6"
     style="clip-rule:evenodd;fill:none;fill-rule:evenodd;stroke-width:10.6398;stroke-dasharray:none;image-rendering:optimizeQuality;shape-rendering:geometricPrecision;text-rendering:geometricPrecision" /><path
     d="m 545.52644,630.64691 c 0,13.92447 -11.30962,24.99556 -24.99029,24.99556 -13.68057,0 -24.99018,-11.07109 -24.99018,-24.99556 0,-13.92436 11.30961,-24.99535 24.99018,-24.99535 13.68067,0 24.99029,11.07099 24.99029,24.99535 z"
     stroke="#000000"
     stroke-width="23.7894"
     id="path3672-3"
     style="clip-rule:evenodd;fill:none;fill-rule:evenodd;stroke-width:10.6398;stroke-dasharray:none;image-rendering:optimizeQuality;shape-rendering:geometricPrecision;text-rendering:geometricPrecision" /><ellipse
     cx="489.86996"
     cy="415.91214"
     stroke="#000000"
     stroke-width="23.6036"
     id="circle3674-4"
     style="clip-rule:evenodd;fill:none;fill-rule:evenodd;stroke-width:10.6398;stroke-dasharray:none;image-rendering:optimizeQuality;shape-rendering:geometricPrecision;text-rendering:geometricPrecision"
     rx="15.380619"
     ry="15.383781" /><path
     d="m 591.29821,632.34379 c 0,39.54783 -32.0679,71.47854 -71.46396,71.47854 -39.39618,0 -71.46385,-31.93071 -71.46385,-71.47859 0,-39.54798 32.06767,-71.47839 71.46385,-71.47839 39.39606,0 71.46396,31.93041 71.46396,71.47844 z"
     stroke="#000000"
     stroke-width="23.622"
     id="path3676-9"
     style="clip-rule:evenodd;fill:none;fill-rule:evenodd;stroke-width:10.6398;stroke-dasharray:none;image-rendering:optimizeQuality;shape-rendering:geometricPrecision;text-rendering:geometricPrecision" /><path
     d="m 358.02164,417.47024 73.37984,-16.20645"
     stroke="#000000"
     stroke-width="24.025"
     stroke-linecap="round"
     id="path3678-6"
     style="clip-rule:evenodd;fill:none;fill-rule:evenodd;stroke-width:10.6398;stroke-dasharray:none;image-rendering:optimizeQuality;shape-rendering:geometricPrecision;text-rendering:geometricPrecision" /><ellipse
     cx="667.78186"
     cy="275.03973"
     stroke="#000000"
     stroke-width="23.5215"
     id="circle3680-7"
     style="clip-rule:evenodd;fill:none;fill-rule:evenodd;stroke-width:10.6398;stroke-dasharray:none;image-rendering:optimizeQuality;shape-rendering:geometricPrecision;text-rendering:geometricPrecision"
     rx="34.72057"
     ry="34.727711" /><path
     d="m 711.45141,408.47946 -30.4006,-64.91818 c -0.5086,-1.08677 0.1532,-2.34563 1.3658,-2.59938 l 69.9419,-14.62285 c 1.5914,-0.33309 2.8894,1.23492 2.1888,2.64357 l -39.541,79.54053 c -0.718,1.4429 -2.8716,1.41683 -3.5549,-0.0449 z"
     stroke="#000000"
     stroke-width="24.0255"
     stroke-linecap="round"
     id="path3682-7"
     style="clip-rule:evenodd;fill:none;fill-rule:evenodd;stroke-width:10.6398;stroke-dasharray:none;image-rendering:optimizeQuality;shape-rendering:geometricPrecision;text-rendering:geometricPrecision" /><rect
     x="341.46753"
     y="556.49677"
     width="74.605667"
     height="66.864342"
     rx="6.493433"
     transform="matrix(0.9098608,-0.41491363,0.45434393,0.89082636,0,0)"
     stroke="#000000"
     stroke-width="24.0362"
     id="rect3684-6"
     style="clip-rule:evenodd;fill:none;fill-rule:evenodd;stroke-width:10.6449;stroke-dasharray:none;image-rendering:optimizeQuality;shape-rendering:geometricPrecision;text-rendering:geometricPrecision" /><text
     xml:space="preserve"
     id="text19252"
     style="font-weight:200;font-size:490px;font-family:'Source Sans Pro';-inkscape-font-specification:'Source Sans Pro Ultra-Light';white-space:pre;shape-inside:url(#rect19254);fill:#000000;stroke:#000000;stroke-width:2;stroke-linecap:round"
     transform="translate(872,764.11528)"><tspan
       x="0"
       y="0"
       id="tspan19487">Metaworld</tspan></text></g></g>
</svg>
