<?xml version="1.0" encoding="UTF-8" standalone="no"?>
<!-- Creator: CorelDRAW -->

<svg
   xml:space="preserve"
   width="3750"
   height="1000"
   version="1.1"
   style="clip-rule:evenodd;fill-rule:evenodd;image-rendering:optimizeQuality;shape-rendering:geometricPrecision;text-rendering:geometricPrecision"
   viewBox="0 0 3750 1000"
   id="svg145"
   sodipodi:docname="Banner.svg"
   inkscape:version="1.2.1 (9c6d41e410, 2022-07-14)"
   inkscape:export-filename="..\..\..\OneDrive - University of Maryland\Desktop\logos\metaworld\Banner-not-rounded.svg"
   inkscape:export-xdpi="96"
   inkscape:export-ydpi="96"
   xmlns:inkscape="http://www.inkscape.org/namespaces/inkscape"
   xmlns:sodipodi="http://sodipodi.sourceforge.net/DTD/sodipodi-0.dtd"
   xmlns="http://www.w3.org/2000/svg"
   xmlns:svg="http://www.w3.org/2000/svg"><sodipodi:namedview
   id="namedview147"
   pagecolor="#ffffff"
   bordercolor="#666666"
   borderopacity="1.0"
   inkscape:showpageshadow="2"
   inkscape:pageopacity="0.0"
   inkscape:pagecheckerboard="0"
   inkscape:deskcolor="#d1d1d1"
   showgrid="false"
   inkscape:zoom="0.15861561"
   inkscape:cx="1544.6147"
   inkscape:cy="498.05943"
   inkscape:window-width="1538"
   inkscape:window-height="877"
   inkscape:window-x="1974"
   inkscape:window-y="-8"
   inkscape:window-maximized="1"
   inkscape:current-layer="Layer_x0020_1"
   showguides="true"><inkscape:grid
     type="xygrid"
     id="grid2199" /><sodipodi:guide
     position="-392.30311,1579.5387"
     orientation="1,0"
     id="guide2201"
     inkscape:locked="false" /><sodipodi:guide
     position="1875,1000"
     orientation="1,0"
     id="guide2203"
     inkscape:locked="false" /><sodipodi:guide
     position="3750,500"
     orientation="0,-1"
     id="guide5967"
     inkscape:locked="false" /></sodipodi:namedview>
 <defs
   id="defs139"><style
     type="text/css"
     id="style137">
   <![CDATA[
    .str0 {stroke:#373435;stroke-width:2.36;stroke-miterlimit:22.9256}
    .fil0 {fill:none}
   ]]>
  </style></defs>
 <g
   id="Layer_x0020_1"
   inkscape:label="Layer 1"
   inkscape:groupmode="layer">
  <metadata
   id="CorelCorpID_0Corel-Layer" />
  
 <rect
   style="fill:#ffffff;stroke-width:15;stroke-linecap:round"
   id="rect572"
   width="3750"
   height="1000"
   x="0"
   y="0"
   ry="300"
   sodipodi:insensitive="true" /><g
   id="g5965"
   transform="translate(246.79705,-3.74)"><g
     style="fill:none"
     id="g5018"
     transform="translate(1215.7878,340.97475)"><path
       d="m -295.7878,360.72525 h 14.70005 v -225.4 c 0,-25.48 -0.98,-57.820004 -1.96,-84.280004 h 1.96 l 25.48,71.540004 73.4999,201.88 h 16.66 l 73.009995,-201.88 24.99,-71.540004 h 1.96 c -0.98,26.46 -1.96,58.800004 -1.96,84.280004 v 225.4 h 15.68 V 37.325246 h -25.48 L -146.82785,233.32525 c -8.82,24.5 -16.66,49 -25.48,73.5 h -1.96 c -8.82,-24.5 -17.64,-49 -26.4599,-73.5 l -69.58,-196.000004 h -25.48005 z m 426.41895,5.88 c 35.28,0 54.88,-11.76 72.52,-22.54 l -6.86,-12.74 c -17.64,12.74 -38.22001,21.56 -64.68,21.56 -55.860005,0 -92.120005,-46.06 -92.120005,-108.78 H 211.97114 c 0.98,-5.88 0.98,-10.78 0.98,-15.68 0,-69.58 -34.3,-107.8 -88.19999,-107.8 -51.940005,0 -100.940005,47.04 -100.940005,123.48 0,76.44 48.02,122.5 106.820005,122.5 z m -91.140005,-136.22 c 4.9,-59.78 43.12,-96.04 85.260005,-96.04 44.1,0 73.5,31.36 73.5,96.04 z m 293.889005,136.22 c 7.84,0 22.54,-3.92 36.26,-8.82 l -4.9,-12.74 c -8.82,3.92 -21.56,7.84 -30.38,7.84 -34.3,0 -41.16,-21.56 -41.16,-51.94 v -160.72 h 69.58 v -13.72 h -69.58 V 57.905246 h -12.74 l -1.96,68.600004 -37.24,1.96 v 11.76 h 37.24 v 158.76 c 0,40.18 11.76,67.62 54.88,67.62 z m 127.055,0 c 31.36,0 60.76,-17.64 85.26,-37.24 h 0.98 l 1.96,31.36 h 12.74 v -151.9 c 0,-47.04 -16.66,-88.2 -71.54,-88.2 -38.22,0 -70.56,19.6 -85.26,30.38 l 7.84,11.76 c 14.7,-11.76 43.12,-28.42 76.44,-28.42 49,0 58.8,42.14 57.82,80.36 -105.84,11.76 -153.86,36.26 -153.86,88.69 0,44.59 31.36,63.21 67.62,63.21 z m 0.98,-13.72 c -28.42,0 -52.92,-13.72 -52.92,-49.98 0,-40.18 35.28,-63.7 138.18,-75.46 v 85.26 c -31.36,26.46 -56.84,40.18 -85.26,40.18 z m 222.621,7.84 h 18.62 l 43.115,-151.9 c 7.84,-22.54 13.72,-45.08 19.6,-67.62 h 1.96 c 6.85999,22.54 11.76,44.1 18.61999,66.64 l 44.1,152.88 h 20.58 l 68.6,-234.22 h -15.68 l -44.1,157.78 c -5.88,21.56 -11.76,41.16 -17.64,61.74 h -1.96 c -5.88,-20.58 -11.76,-40.18 -17.64,-61.74 l -45.08,-157.78 h -20.58 l -45.08,157.78 c -5.88,21.56 -11.755,41.16 -17.635,61.74 h -1.96 c -4.9,-20.58 -10.78,-40.18 -16.66,-61.74 l -45.08,-157.78 h -16.66 z m 377.23495,5.88 c 55.86,0 103.88,-45.08 103.88,-122.5 0,-78.4 -48.02,-123.48 -103.88,-123.48 -55.86,0 -103.87995,45.08 -103.87995,123.48 0,77.42 48.01995,122.5 103.87995,122.5 z m 0,-13.72 c -49.98,0 -88.19995,-44.1 -88.19995,-108.78 0,-64.68 38.21995,-109.76 88.19995,-109.76 49.98,0 88.2,45.08 88.2,109.76 0,64.68 -38.22,108.78 -88.2,108.78 z m 177.49,7.84 h 14.7 v -162.68 c 18.62,-46.06 44.1,-62.72 65.66,-62.72 8.82,0 12.74,0.98 20.58,3.92 l 3.92,-13.72 c -7.84,-3.92 -14.7,-4.9 -22.54,-4.9 -28.42,0 -50.96,21.56 -66.64,49.98 h -0.98 l -1.96,-44.1 h -12.74 z m 173.3,5.88 c 5.88,0 8.82,-0.98 12.74,-1.96 l -2.94,-12.74 c -4.9,0.98 -6.86,0.98 -8.82,0.98 -5.88,0 -9.8,-4.9 -9.8,-14.7 V 6.9452155 h -14.7 V 335.24525 c 0,22.54 8.82,31.36 23.52,31.36 z m 165.85,0 c 32.34,0 58.8,-17.64 78.4,-37.24 h 0.98 l 1.96,31.36 h 12.74 V 6.9452155 h -14.7 V 105.92525 l 0.98,44.1 c -24.5,-18.62 -44.1,-29.4 -72.52,-29.4 -56.84,0 -104.86,48.02 -104.86,123.48 0,79.38 38.22,122.5 97.02,122.5 z m 0.98,-13.72 c -52.92,0 -82.32,-44.1 -82.32,-108.78 0,-60.76 38.22,-109.76 88.2,-109.76 24.5,0 46.06,8.82 72.52,32.34 v 145.04 c -26.46,26.46 -50.96,41.16 -78.4,41.16 z"
       fill="#000000"
       id="path5008" /></g><path
     d="M 410.00421,735.03771 H 638.47797"
     stroke="#000000"
     stroke-width="12.7336"
     stroke-linecap="round"
     id="path3652-2"
     style="clip-rule:evenodd;fill:none;fill-rule:evenodd;stroke:#000000;stroke-opacity:1;image-rendering:optimizeQuality;shape-rendering:geometricPrecision;text-rendering:geometricPrecision" /><path
     d="m 317.30898,572.34402 114.88948,63.95991"
     stroke="#000000"
     stroke-width="12.7336"
     stroke-linecap="round"
     id="path3654-9"
     style="clip-rule:evenodd;fill:none;fill-rule:evenodd;stroke:#000000;stroke-opacity:1;image-rendering:optimizeQuality;shape-rendering:geometricPrecision;text-rendering:geometricPrecision" /><path
     d="m 391.0735,520.18281 109.01456,26.7017"
     stroke="#000000"
     stroke-width="12.7336"
     stroke-linecap="round"
     id="path3656-3"
     style="clip-rule:evenodd;fill:none;fill-rule:evenodd;stroke:#000000;stroke-opacity:1;image-rendering:optimizeQuality;shape-rendering:geometricPrecision;text-rendering:geometricPrecision" /><path
     d="m 449.47138,656.17511 c 0,0 -58.2695,102.45968 -54.25377,102.45968 4.01539,0 255.01058,0 259.25376,0 4.24352,0 -61.96757,-102.45968 -61.96757,-102.45968"
     stroke="#000000"
     stroke-width="12.7336"
     stroke-linecap="round"
     id="path3658-7"
     style="clip-rule:evenodd;fill:none;fill-rule:evenodd;stroke:#000000;stroke-opacity:1;image-rendering:optimizeQuality;shape-rendering:geometricPrecision;text-rendering:geometricPrecision" /><path
     d="m 463.20558,362.45654 c 0,0 14.73197,-51.12554 21.09019,-55.23341 6.35817,-4.10747 93.62451,-31.70236 100.68915,-31.70236 7.06397,0 24.01825,28.15362 21.19252,34.1861 -2.82438,6.03318 -60.04644,28.82344 -64.285,32.84569 -4.23859,4.02221 -9.62205,29.21861 -9.62205,29.21861"
     stroke="#000000"
     stroke-width="12.7336"
     stroke-linecap="round"
     id="path3660-7"
     style="clip-rule:evenodd;fill:none;fill-rule:evenodd;stroke:#000000;stroke-opacity:1;image-rendering:optimizeQuality;shape-rendering:geometricPrecision;text-rendering:geometricPrecision" /><path
     d="m 534.22674,416.17029 c 0,24.27947 -19.6882,43.89591 -43.89275,43.89591 -24.20424,0 -43.89237,-19.61644 -43.89237,-43.89591 0,-24.28023 19.68813,-43.8963 43.89237,-43.8963 24.20455,0 43.89275,19.61607 43.89275,43.8963 z"
     stroke="#000000"
     stroke-width="12.4967"
     id="path3662-9"
     style="clip-rule:evenodd;fill:none;fill-rule:evenodd;stroke:#000000;stroke-opacity:1;image-rendering:optimizeQuality;shape-rendering:geometricPrecision;text-rendering:geometricPrecision" /><path
     d="m 373.7173,488.82356 c 0,37.99308 -30.80144,68.74778 -68.74248,68.74778 -37.94078,0 -68.74254,-30.7547 -68.74254,-68.74778 0,-37.99305 30.80176,-68.74809 68.74254,-68.74809 37.94104,0 68.74248,30.75504 68.74248,68.74809 z"
     stroke="#000000"
     stroke-width="12.4709"
     id="path3664-0"
     style="clip-rule:evenodd;fill:none;fill-rule:evenodd;stroke:#000000;stroke-opacity:1;image-rendering:optimizeQuality;shape-rendering:geometricPrecision;text-rendering:geometricPrecision" /><path
     d="m 554.14202,420.53253 c 0,0 26.14509,15.29361 35.33065,13.95252 9.18651,-1.3418 65.71662,-24.07436 69.95651,-20.78347 4.23989,3.29162 15.54642,17.43143 16.25315,26.81771 0.70774,9.38664 -77.02315,52.09661 -86.20966,54.10893 -9.18556,2.0092 -67.19007,-24.75888 -67.19007,-24.75888"
     stroke="#000000"
     stroke-width="12.7336"
     stroke-linecap="round"
     id="path3666-9"
     style="clip-rule:evenodd;fill:none;fill-rule:evenodd;stroke:#000000;stroke-opacity:1;image-rendering:optimizeQuality;shape-rendering:geometricPrecision;text-rendering:geometricPrecision" /><path
     d="m 395.64256,490.37607 59.40359,-27.94356"
     stroke="#000000"
     stroke-width="12.7336"
     stroke-linecap="round"
     id="path3668-5"
     style="clip-rule:evenodd;fill:none;fill-rule:evenodd;stroke:#000000;stroke-opacity:1;image-rendering:optimizeQuality;shape-rendering:geometricPrecision;text-rendering:geometricPrecision" /><path
     d="m 329.76233,488.20192 c 0,14.04204 -11.40654,25.21179 -25.21023,25.21179 -13.80369,0 -25.20985,-11.16975 -25.20985,-25.21179 0,-14.04202 11.40616,-25.21206 25.20985,-25.21206 13.80369,0 25.21023,11.17004 25.21023,25.21206 z"
     stroke="#000000"
     stroke-width="12.6064"
     id="path3670-6"
     style="clip-rule:evenodd;fill:none;fill-rule:evenodd;stroke:#000000;stroke-opacity:1;image-rendering:optimizeQuality;shape-rendering:geometricPrecision;text-rendering:geometricPrecision" /><path
     d="m 545.25439,630.09432 c 0,13.87151 -11.26832,24.90081 -24.89914,24.90081 -13.63054,0 -24.89882,-11.0293 -24.89882,-24.90081 0,-13.8722 11.26828,-24.90183 24.89882,-24.90183 13.63082,0 24.89914,11.02963 24.89914,24.90183 z"
     stroke="#000000"
     stroke-width="12.6086"
     id="path3672-3"
     style="clip-rule:evenodd;fill:none;fill-rule:evenodd;stroke:#000000;stroke-opacity:1;image-rendering:optimizeQuality;shape-rendering:geometricPrecision;text-rendering:geometricPrecision" /><ellipse
     cx="489.80127"
     cy="416.16989"
     stroke="#000000"
     stroke-width="12.5103"
     id="circle3674-4"
     style="clip-rule:evenodd;fill:none;fill-rule:evenodd;stroke:#000000;stroke-opacity:1;image-rendering:optimizeQuality;shape-rendering:geometricPrecision;text-rendering:geometricPrecision"
     rx="15.324475"
     ry="15.32565" /><path
     d="m 590.85919,631.7845 c 0,39.39849 -31.95092,71.20878 -71.20311,71.20878 -39.25258,0 -71.2035,-31.81029 -71.2035,-71.20878 0,-39.39883 31.95092,-71.20879 71.2035,-71.20879 39.25219,0 71.20311,31.80996 71.20311,71.20879 z"
     stroke="#000000"
     stroke-width="12.52"
     id="path3676-9"
     style="clip-rule:evenodd;fill:none;fill-rule:evenodd;stroke:#000000;stroke-opacity:1;image-rendering:optimizeQuality;shape-rendering:geometricPrecision;text-rendering:geometricPrecision" /><path
     d="m 358.4339,417.72277 73.11208,-16.14488"
     stroke="#000000"
     stroke-width="12.7336"
     stroke-linecap="round"
     id="path3678-6"
     style="clip-rule:evenodd;fill:none;fill-rule:evenodd;stroke:#000000;stroke-opacity:1;image-rendering:optimizeQuality;shape-rendering:geometricPrecision;text-rendering:geometricPrecision" /><ellipse
     cx="667.06403"
     cy="275.83124"
     stroke="#000000"
     stroke-width="12.4667"
     id="circle3680-7"
     style="clip-rule:evenodd;fill:none;fill-rule:evenodd;stroke:#000000;stroke-opacity:1;image-rendering:optimizeQuality;shape-rendering:geometricPrecision;text-rendering:geometricPrecision"
     rx="34.59383"
     ry="34.596481" /><path
     d="m 710.57385,408.76627 -30.28988,-64.67349 c -0.50694,-1.0832 0.16462,-2.33416 1.36287,-2.58922 l 69.68658,-14.56758 c 1.58335,-0.31453 2.87706,1.23001 2.18244,2.63469 l -39.39635,79.24037 c -0.71433,1.4361 -2.85731,1.41166 -3.54235,-0.0331 z"
     stroke="#000000"
     stroke-width="12.7338"
     stroke-linecap="round"
     id="path3682-7"
     style="clip-rule:evenodd;fill:none;fill-rule:evenodd;stroke:#000000;stroke-opacity:1;image-rendering:optimizeQuality;shape-rendering:geometricPrecision;text-rendering:geometricPrecision" /><rect
     x="340.91348"
     y="556.79102"
     width="74.331688"
     height="66.613441"
     rx="6.4695878"
     transform="matrix(0.90988104,-0.41486925,0.4543905,0.8908026,0,0)"
     stroke="#000000"
     stroke-width="12.7396"
     id="rect3684-6"
     style="clip-rule:evenodd;fill:none;fill-rule:evenodd;stroke:#000000;stroke-opacity:1;image-rendering:optimizeQuality;shape-rendering:geometricPrecision;text-rendering:geometricPrecision" /></g></g>
</svg>
